<?xml version="1.0" standalone="no"?>
<!DOCTYPE svg PUBLIC "-//W3C//DTD SVG 20010904//EN"
 "http://www.w3.org/TR/2001/REC-SVG-20010904/DTD/svg10.dtd">
<svg version="1.0" xmlns="http://www.w3.org/2000/svg"
 width="215.000000pt" height="154.000000pt" viewBox="0 0 215.000000 154.000000"
 preserveAspectRatio="xMidYMid meet">

<g transform="translate(0.000000,154.000000) scale(0.100000,-0.100000)"
fill="#000000" stroke="none">
<path d="M1400 1345 l85 -85 -195 -195 -195 -195 -92 92 -93 93 -287 -288
-288 -287 95 -95 95 -95 192 192 193 193 90 -90 90 -90 273 273 272 272 88
-87 87 -88 0 283 0 282 -247 0 -248 0 85 -85z"/>
<path d="M1586 870 l-46 -49 2 -358 3 -358 59 -3 59 -3 -7 193 c-3 106 -6 291
-7 411 -1 119 -5 217 -9 217 -4 0 -28 -22 -54 -50z"/>
<path d="M1402 687 l-62 -63 0 -262 0 -262 65 0 65 0 0 325 c0 179 -1 325 -3
325 -1 0 -31 -28 -65 -63z"/>
<path d="M1193 478 l-62 -63 -2 -155 -1 -155 66 -3 66 -3 0 221 c0 121 -1 220
-3 220 -1 0 -30 -28 -64 -62z"/>
<path d="M920 312 l0 -212 65 0 65 0 0 148 0 148 -65 64 -65 64 0 -212z"/>
<path d="M777 382 l-57 -58 0 -112 0 -112 60 0 60 0 0 170 c0 94 -1 170 -3
170 -1 0 -28 -26 -60 -58z"/>
<path d="M570 175 l-74 -75 72 0 c84 0 84 0 80 89 l-3 62 -75 -76z"/>
</g>
</svg>
